<svg height="261.342687" viewBox="0 0 1000 683.21033" width="382.639366" xmlns="http://www.w3.org/2000/svg" xmlns:xlink="http://www.w3.org/1999/xlink"><linearGradient id="a" gradientUnits="userSpaceOnUse" x1="-12.379924" x2="-12.379924" y1="2.769346" y2="-2.813709"><stop offset="0" stop-color="#424342"/><stop offset="1" stop-color="#323132"/></linearGradient><g fill="#dd5530"><path d="m0 0c.134-.206.395-.287.622-.193.628.26 1.316.404 2.039.404s1.412-.144 2.04-.404c.227-.094.488-.013.621.193l3.33 5.128c.195.299.088.699-.229.864-1.725.896-3.684 1.403-5.762 1.403s-4.037-.507-5.762-1.403c-.316-.165-.423-.565-.229-.864z" transform="matrix(27.296965 0 0 -27.296965 267.485952 201.861056)"/><path d="m0 0c.205 1.14.772 2.155 1.579 2.92.176.168.207.44.074.645l-3.33 5.127c-.195.299-.605.365-.883.142-2.578-2.06-4.323-5.119-4.651-8.59-.034-.353.245-.658.6-.658h6.111c.244 0 .457.173.5.414" transform="matrix(27.296965 0 0 -27.296965 196.92602 315.741376)"/><path d="m0 0c-.807.765-1.374 1.779-1.579 2.92-.043.241-.255.414-.5.414h-6.111c-.355 0-.634-.305-.6-.659.328-3.471 2.073-6.529 4.651-8.589.279-.223.689-.158.884.141l3.329 5.128c.134.205.103.477-.074.645" transform="matrix(27.296965 0 0 -27.296965 240.017008 447.165336)"/><path d="m0 0c-.133.206-.395.287-.622.193-.628-.26-1.316-.404-2.039-.404s-1.411.144-2.039.404c-.227.094-.488.013-.622-.193l-3.33-5.127c-.194-.3-.087-.7.229-.865 1.725-.896 3.684-1.403 5.762-1.403s4.037.507 5.762 1.403c.316.165.423.565.229.865z" transform="matrix(27.296965 0 0 -27.296965 412.76859 481.349296)"/></g><path d="m0 0c0-.097-.006-.231-.019-.295h-2.022c.079-.325.311-.477.639-.477.222 0 .462.091.651.261l.614-.572c-.31-.31-.763-.489-1.314-.489-.936 0-1.572.623-1.572 1.554 0 .94.623 1.59 1.53 1.59.885 0 1.49-.638 1.493-1.572m-2.038.307h1.086c-.076.298-.261.456-.538.456-.295 0-.475-.161-.548-.456m-2.1880966.8731013v.31h.922v-2.698c0-.979-.642-1.563-1.618-1.563-.499 0-1.007.128-1.363.381l.338.757c.292-.207.605-.304.958-.304.386 0 .751.212.751.687v.185c-.176-.225-.438-.377-.821-.377-.8 0-1.384.66000001-1.384 1.50600001 0 .845.584 1.50799999 1.384 1.50799999.392 0 .657-.161.833-.392m-1.234-1.11599999c0-.362.255-.639.626-.639.359 0 .608.271.608.639s-.249.639-.608.639c-.371 0-.626-.274-.626-.639m-1.3007019.40129806v-1.95899997h-.952v1.62099997c0 .353-.176.551-.471.551-.264 0-.484-.18-.484-.566v-1.60599997h-.951v2.984h.912v-.374c.188.313.489.456.888.456.596 0 1.058-.417 1.058-1.10700003m-3.1997-.46539937c0-.097-.006-.231-.019-.295h-2.0219995c.079-.325.311-.477.639-.477.222 0 .462.091.651.261l.614-.572c-.31-.31-.763-.489-1.314-.489-.937 0-1.572.623-1.572 1.554 0 .94.623 1.59 1.53 1.59.885 0 1.4899995-.638 1.4929995-1.572m-2.0379995.307h1.086c-.076.298-.261.456-.539.456-.294 0-.474-.161-.547-.456m-2.274301-1.8003007h.952v4.3790011h-.952zm-1.465 0h.951v4.3790011h-.951zm-.4736 0h-.921v.322c-.18-.234-.454-.401-.858-.401-.797 0-1.387.69299997-1.387 1.57499997 0 .876.59 1.57000003 1.391 1.57000003.4 0 .674-.171.854-.405v.323h.921zm-2.187 1.49299997c0-.389.256-.684.636-.684.374 0 .639.289.639.684 0 .396-.265.685-.639.685-.38 0-.636-.295-.636-.685m-3.2086 1.17730013c.188.271.477.395.848.395.596 0 1.059-.416 1.059-1.107v-1.958h-.952v1.621c0 .353-.177.55-.472.55-.264 0-.483-.179-.483-.566v-1.605h-.952v4.382h.952zm-1.271-.25849896-.745-.52c-.15.192-.319.286-.551.286-.331 0-.614-.256-.614-.685 0-.431.277-.684.608-.684.225 0 .414.101.563.289l.742-.529c-.286-.40500004-.724-.64800004-1.277-.64800004-.953 0-1.609.66000004-1.609 1.57200004 0 .913.656 1.57299996 1.609 1.57299996.553 0 .988-.246 1.274-.65399996" fill="url(#a)" transform="matrix(27.29696574818 0 0 -27.29696574818 999.99999690957 345.14836907644)"/></svg>